<svg xmlns="http://www.w3.org/2000/svg" viewBox="0 0 320 200" width="320" height="200">
    <rect width="320" height="200" fill="#f5f7fb"/>
    <g transform="translate(110,30)">
        <circle cx="50" cy="70" r="60" fill="#fff" stroke="#1a1f2c" stroke-width="3"/>
        <polygon points="50,30 65,42 60,60 40,60 35,42" fill="#1a1f2c"/>
        <polygon points="20,55 35,42 40,60 30,75 15,70" fill="#1a1f2c"/>
        <polygon points="80,55 65,42 60,60 70,75 85,70" fill="#1a1f2c"/>
        <polygon points="35,90 50,80 65,90 60,105 40,105" fill="#1a1f2c"/>
        <line x1="50" y1="30" x2="50" y2="20" stroke="#1a1f2c" stroke-width="2"/>
        <line x1="20" y1="55" x2="10" y2="50" stroke="#1a1f2c" stroke-width="2"/>
        <line x1="80" y1="55" x2="90" y2="50" stroke="#1a1f2c" stroke-width="2"/>
    </g>
</svg>
